<svg xmlns="http://www.w3.org/2000/svg" viewBox="0 0 291.3 291.3"><path d="M145.7 0C226 0 291.3 65.2 291.3 145.7S226 291.3 145.7 291.3 0 226 0 145.7 65.2 0 145.7 0z" fill="#3F729B"/><path d="M196 63.7H95.3C78 63.7 63.7 78 63.7 95.4V196c0 17.4 14.2 31.6 31.7 31.6H196c17.4 0 31.6-14.2 31.6-31.7V95.3c0-17.5-14.2-31.7-31.7-31.7zM206 82h3.5v27.2H182v-27l24-.2zm-60.3 36.2c22.7 0 27.4 21.4 27.4 27.5 0 15-12.2 27.4-27.3 27.4-15.2 0-27.5-12.2-27.5-27.3 0-6 4.7-27.5 27.5-27.5zm64 75.8c0 8.6-7 15.7-15.8 15.7H97c-8.6 0-15.6-7-15.6-15.7v-66.6H104c-2 5.2-3.2 12.3-3.2 18.3 0 24.7 20 44.8 44.8 44.8s44.8-20 44.8-44.8c0-6-1.2-13-3.3-18.3h22.6V194z" fill="#FFF"/></svg>