<svg xmlns="http://www.w3.org/2000/svg" viewBox="0 0 291.3 291.3"><path d="M145.7 0C226 0 291.3 65.2 291.3 145.7c0 80.4-65.2 145.6-145.6 145.6S0 226 0 145.7C0 65.2 65.2 0 145.7 0z" fill="#26A6D1"/><path d="M236.7 98c-6.3 3-13.2 4.7-20.4 5.6 7.4-4.3 13-11 15.6-19-7 4-14.5 6.7-22.6 8.3-6.5-6.8-15.7-11-26-11C164 82 148 97.4 148 116.4c0 2.7.3 5.4 1 8-29.6-1.6-55.7-15.3-73.2-36-3 5-4.8 11-4.8 17.2 0 12 6.2 22.5 15.7 28.7-5.8-.2-11.2-1.8-16-4.3v.4C70.7 147 83 161 99 164.2c-2.8.8-6 1.2-9.2 1.2-2.3 0-4.5-.2-6.7-.6 4.6 13.7 17.7 23.6 33.3 24-12.2 9-27.5 14.6-44 14.6-3 0-5.8 0-8.6-.4 15.7 9.7 34.4 15.4 54.4 15.4 65.4 0 101-52.5 101-98V116c7-5 13-11 17.7-18z" fill="#FFF"/></svg>