<?xml version="1.0" standalone="no"?>
<!DOCTYPE svg PUBLIC "-//W3C//DTD SVG 20010904//EN"
 "http://www.w3.org/TR/2001/REC-SVG-20010904/DTD/svg10.dtd">
<svg version="1.0" xmlns="http://www.w3.org/2000/svg"
 width="256.000000pt" height="256.000000pt" viewBox="0 0 256.000000 256.000000"
 preserveAspectRatio="xMidYMid meet">
<metadata>
Created by potrace 1.11, written by Peter Selinger 2001-2013
</metadata>
<g transform="translate(0.000000,256.000000) scale(0.100000,-0.100000)"
fill="#000000" stroke="none">
<path d="M701 2400 c-97 -32 -163 -104 -203 -220 -19 -55 -22 -86 -23 -200 0
-74 4 -160 8 -190 l9 -56 -72 -28 c-193 -75 -347 -204 -395 -331 -13 -33 -16
-63 -13 -112 6 -80 27 -129 82 -198 77 -94 135 -137 286 -208 58 -28 106 -51
107 -51 1 -1 -2 -31 -8 -66 -10 -70 -12 -227 -4 -275 46 -247 198 -360 429
-318 86 16 228 84 318 152 37 28 70 51 73 51 4 0 26 -16 50 -35 23 -20 80 -58
126 -86 254 -152 481 -114 575 97 52 119 63 308 29 495 -2 12 9 20 38 29 191
56 371 194 418 319 81 217 -65 409 -423 554 l-37 15 11 39 c17 56 16 307 -1
368 -75 268 -291 346 -568 205 -43 -22 -111 -64 -151 -95 -40 -30 -76 -55 -79
-55 -3 0 -33 22 -67 48 -189 149 -369 202 -515 152z"/>
</g>
</svg>
