<svg xmlns="http://www.w3.org/2000/svg" viewBox="0 0 532.3 532.3" fill="#fff"><path d="M472 241.3l18-23.6c32-42.5 45.8-69.6 41.6-81.5l-1.7-2.7c-1.2-1.7-4-3.2-8.7-4.6-4.6-1.5-10.5-1.7-17.7-.8l-79.8.6c-2-.2-3.7-.2-5.6 0-1.8.4-3 .7-3.6 1l-1.4.6-1 .8c-1 .6-2 1.6-3 3-1.2 1.4-2.2 3-3 4.8-8.6 22.4-18.5 43.2-29.5 62.4-7 11.4-13.2 21.4-19 29.8-5.6 8.4-10.4 14.6-14.3 18.5-4 4-7.4 7.2-10.5 9.6-3.3 2.4-5.7 3.4-7.3 3l-4.7-1c-2.6-1.7-4.7-4-6.3-6.8-1.6-3-2.6-6.5-3.2-11-.5-4.2-1-8-1-11 0-3.2 0-7.7.2-13.4l.3-11.5c0-7 0-14.7.4-23l.7-19.4c.3-4.7.4-9.8.4-15.2 0-5.3-.4-9.5-1-12.6-.7-3-1.6-6-3-9-1.2-2.7-3-5-5.6-6.5-2.5-1.6-5.6-2.8-9.3-3.8-9.8-2.3-22.3-3.5-37.4-3.7-34.3-.3-56.4 2-66.2 6.7-3.8 2-7.3 4.8-10.5 8.3-3.3 4-3.8 6.3-1.4 6.7 11 1.6 19 5.6 23.5 12l1.7 3.2c1.2 2.4 2.5 6.7 3.8 12.8 1.3 6 2.2 12.8 2.5 20.2 1 13.5 1 25 0 34.6-1 9.7-1.8 17-2.6 22.5-1 5.3-2.2 9.7-3.8 13-1.7 3.3-2.8 5.4-3.4 6-.5.8-1 1.3-1.4 1.5-2.4 1-4.8 1.4-7.4 1.4-2.6 0-5.8-1.3-9.5-4-3.7-2.5-7.5-6-11.5-10.6-4-4.5-8.4-10.8-13.4-19-5-8-10.2-17.7-15.5-28.8l-4.4-8c-2.7-5.2-6.5-12.7-11.3-22.6s-9-19.5-12.8-28.7c-1.5-4-3.7-6.8-6.6-9l-1.5-.7c-1-.7-2.4-1.5-4.4-2.4-2-.8-4-1.4-6.3-1.8l-76 .6c-7.7 0-13 1.8-15.8 5.3L.7 135c-.5 1-.8 2.5-.8 4.6 0 2 .6 4.5 1.7 7.4 11 26 23 51.2 36 75.4C51 246.6 62.3 266 71.8 281c9.7 14.7 19.5 28.7 29.5 41.8 10 13 16.6 21.5 19.8 25.2 3.2 3.7 5.8 6.5 7.6 8.3l7 6.7c4.4 4.4 11 9.7 19.5 16 8.7 6 18.2 12.2 28.6 18.2 10.5 6 22.6 11 36.5 14.7 14 3.7 27.4 5.2 40.5 4.5h32c6.4-.6 11.3-2.6 14.6-6l1.2-1.5c.7-1 1.4-2.8 2-5 .7-2.5 1-5 1-7.8 0-8 .5-15 2-21.4 1.2-6.4 2.8-11.2 4.6-14.5 1.7-3.2 3.7-6 6-8 2-2.4 3.7-3.7 4.6-4.2l2.3-.8c4.4-1.5 9.6 0 15.6 4.3s11.7 9.7 17 16c5.2 6.4 11.5 13.6 19 21.5 7.3 8 13.8 14 19.3 17.8l5.6 3.3c3.7 2.3 8.5 4.3 14.4 6.2 6 1.8 11 2.3 15.5 1.4l71-1c7 0 12.5-1.3 16.4-3.6 4-2.3 6.2-5 7-7.6.7-2.8.7-6 0-9.4-.6-3.6-1.2-6-2-7.4-.5-1.4-1-2.5-1.7-3.4-9.2-16.7-27-37-53-61.3l-.5-.7-.2-.2-.3-.2h-.3c-11.8-11.3-19.3-19-22.4-22.7-5.8-7.3-7-14.8-4-22.4 2.3-5.7 10.6-17.8 25-36.3z"/></svg>